<?xml version="1.0" standalone="no"?>
<!DOCTYPE svg PUBLIC "-//W3C//DTD SVG 20010904//EN"
 "http://www.w3.org/TR/2001/REC-SVG-20010904/DTD/svg10.dtd">
<svg version="1.0" xmlns="http://www.w3.org/2000/svg"
 width="1095.000000pt" height="1095.000000pt" viewBox="0 0 1095.000000 1095.000000"
 preserveAspectRatio="xMidYMid meet">
<metadata>
Created by potrace 1.14, written by Peter Selinger 2001-2017
</metadata>
<g transform="translate(0.000000,1095.000000) scale(0.100000,-0.100000)"
fill="#000000" stroke="none">
<path d="M6019 10036 c-2 -2 -37 -7 -78 -10 -41 -4 -77 -8 -80 -10 -3 -2 -24
-7 -46 -10 -183 -29 -471 -149 -658 -274 -137 -93 -310 -250 -382 -347 -16
-22 -32 -42 -35 -45 -19 -17 -108 -163 -150 -247 -73 -143 -118 -287 -145
-468 -9 -63 -6 -244 6 -330 35 -253 161 -501 348 -685 97 -96 187 -159 317
-223 118 -58 298 -122 399 -142 17 -3 41 -8 55 -10 83 -17 241 -27 340 -22
208 11 423 65 614 156 496 237 892 747 971 1251 4 25 9 54 12 65 7 32 6 255
-2 305 -59 403 -306 715 -719 909 -122 57 -248 95 -426 126 -42 8 -335 17
-341 11z"/>
<path d="M1795 8259 c-466 -59 -885 -269 -1233 -617 -200 -200 -378 -468 -463
-698 -33 -91 -77 -263 -85 -334 -7 -68 -7 -240 0 -275 2 -11 7 -40 11 -65 38
-240 164 -524 330 -745 65 -86 221 -247 300 -310 27 -22 59 -48 69 -57 27 -25
231 -159 291 -193 99 -55 181 -97 250 -127 39 -17 93 -40 120 -53 43 -19 272
-103 300 -109 6 -2 48 -15 95 -29 86 -27 385 -101 450 -112 19 -3 80 -14 135
-25 55 -10 123 -21 150 -25 28 -3 59 -8 71 -10 11 -3 43 -7 70 -10 27 -3 63
-7 79 -9 63 -9 190 -22 285 -30 208 -18 197 -18 168 -2 -14 7 -43 19 -65 26
-21 6 -52 18 -70 26 -17 8 -34 14 -38 14 -4 0 -78 30 -164 66 -176 75 -370
170 -485 238 -43 25 -80 46 -82 46 -2 0 -55 34 -117 76 -630 427 -943 962
-950 1624 -1 97 10 267 18 280 2 3 6 29 10 57 15 123 93 348 166 482 82 148
227 325 359 436 101 86 265 184 430 258 60 28 171 65 269 91 51 14 95 27 97
29 2 2 -15 10 -38 17 -24 7 -54 16 -68 20 -146 48 -482 72 -665 49z"/>
<path d="M2557 8034 c-1 -1 -23 -5 -49 -8 -64 -9 -169 -42 -247 -77 -68 -32
-208 -120 -263 -166 -37 -30 -174 -168 -199 -200 -102 -127 -189 -312 -225
-478 -38 -175 -40 -406 -4 -560 6 -27 14 -60 16 -72 14 -71 103 -274 153 -347
l20 -30 -4 60 c-5 71 -6 347 -1 389 11 100 17 145 20 161 29 143 84 258 155
320 45 40 118 63 191 59 72 -4 140 -25 254 -79 269 -128 446 -319 676 -731 84
-151 376 -740 613 -1235 149 -313 619 -1250 705 -1405 140 -254 146 -266 231
-405 310 -510 591 -812 896 -961 149 -73 268 -101 435 -103 172 -1 242 7 396
49 212 59 502 191 699 319 165 108 401 318 592 528 239 263 509 652 648 933
70 142 142 325 127 325 -4 -1 -59 -71 -122 -156 -63 -85 -122 -163 -130 -172
-8 -10 -35 -42 -60 -72 -313 -383 -651 -616 -1030 -711 -95 -23 -355 -36 -425
-20 -22 5 -57 12 -77 15 -58 9 -199 60 -288 106 -310 156 -622 468 -914 915
-83 126 -206 330 -206 340 0 4 -8 19 -19 33 -29 42 -192 362 -266 522 -37 80
-83 179 -102 220 -19 41 -52 113 -73 160 -21 47 -59 129 -84 183 -25 54 -46
99 -46 101 0 6 -168 354 -227 471 -420 830 -794 1334 -1183 1595 -36 24 -77
52 -92 62 -15 10 -31 18 -36 18 -5 0 -29 11 -53 24 -56 31 -150 62 -214 72
-45 6 -183 13 -188 8z"/>
<path d="M8820 7802 c-49 -2 -286 -30 -323 -38 -12 -2 -35 -6 -52 -9 -16 -3
-59 -13 -95 -21 -36 -9 -75 -18 -87 -20 -51 -10 -339 -107 -454 -155 -206 -84
-513 -243 -657 -340 -24 -16 -45 -29 -47 -29 -9 0 -237 -159 -360 -251 -338
-253 -742 -632 -1006 -944 -19 -22 -36 -42 -40 -45 -3 -3 -45 -54 -93 -115
-49 -60 -96 -119 -105 -130 -64 -79 -263 -365 -254 -365 5 0 204 130 213 140
19 20 379 241 510 312 36 20 88 48 115 63 60 33 244 125 335 167 202 94 575
228 730 263 8 2 30 8 48 14 17 5 32 8 32 6 0 -3 11 0 26 5 14 6 39 12 57 15
18 3 39 8 47 10 8 2 35 7 60 10 24 4 47 8 50 10 3 2 34 6 70 10 36 4 67 8 70
10 5 3 111 13 215 21 52 4 360 4 405 0 147 -14 248 -26 330 -42 14 -2 41 -7
60 -10 131 -21 410 -105 568 -170 438 -181 795 -483 1041 -878 200 -321 352
-789 407 -1256 4 -36 9 -68 10 -72 1 -5 2 -29 3 -55 2 -62 11 -48 63 102 69
194 147 496 172 660 8 57 18 120 21 135 2 8 6 44 10 80 4 36 9 73 10 82 24
121 23 728 0 843 -2 11 -7 43 -10 70 -20 174 -72 405 -130 581 -215 645 -627
1079 -1185 1248 -93 28 -199 52 -276 61 -27 4 -56 8 -64 10 -52 13 -323 24
-440 17z"/>
<path d="M8570 6120 c0 -4 22 -52 49 -106 94 -192 176 -444 195 -599 19 -148
23 -212 20 -335 -8 -425 -144 -845 -459 -1415 -218 -395 -377 -610 -655 -884
-276 -272 -616 -508 -930 -646 -47 -20 -100 -44 -118 -52 -19 -8 -100 -37
-180 -63 -272 -90 -572 -137 -848 -135 l-95 1 33 -31 c229 -215 607 -481 883
-622 229 -117 536 -227 716 -258 19 -3 41 -8 49 -10 8 -2 38 -7 66 -10 28 -3
61 -8 75 -11 57 -13 427 -13 533 1 278 36 519 111 781 243 169 85 439 262 526
344 8 7 41 35 74 63 76 63 271 257 357 355 222 254 425 561 535 812 92 210
188 546 209 733 3 33 8 63 10 66 7 12 18 238 17 359 -1 117 -8 233 -17 290 -3
14 -7 48 -11 75 -10 82 -54 270 -86 368 -151 458 -417 812 -817 1085 -66 45
-122 82 -125 82 -2 0 -41 20 -86 45 -93 51 -248 119 -376 164 -119 43 -325
100 -325 91z"/>
</g>
</svg>
